<svg width="33" height="33" viewBox="0 0 33 33" fill="none" xmlns="http://www.w3.org/2000/svg">
<path d="M19.1667 19.1667V8.5V19.1667ZM19.1667 19.1667L27.3027 23.816C27.4242 23.8856 27.562 23.922 27.7021 23.9216C27.8421 23.9213 27.9797 23.8841 28.1009 23.8139C28.2221 23.7438 28.3228 23.643 28.3928 23.5216C28.4629 23.4003 28.4998 23.2627 28.5 23.1227V4.544C28.5001 4.4038 28.4633 4.26605 28.3933 4.14455C28.3234 4.02305 28.2227 3.92207 28.1015 3.85171C27.9802 3.78136 27.8426 3.7441 27.7024 3.74369C27.5622 3.74327 27.4243 3.7797 27.3027 3.84933L19.1667 8.5V19.1667ZM19.1667 19.1667H9.83333C8.41885 19.1667 7.06229 18.6048 6.0621 17.6046C5.0619 16.6044 4.5 15.2478 4.5 13.8333C4.5 12.4188 5.0619 11.0623 6.0621 10.0621C7.06229 9.0619 8.41885 8.5 9.83333 8.5H19.1667V19.1667ZM10.8427 26.2333L9.83333 19.1667H15.1667L16.0693 25.4867C16.1607 26.1762 15.9763 26.8739 15.5562 27.4282C15.1361 27.9826 14.5141 28.3487 13.8256 28.4471C13.137 28.5454 12.4375 28.3681 11.8789 27.9536C11.3204 27.5391 10.948 26.9209 10.8427 26.2333V26.2333Z" stroke="url(#paint0_linear_1687_2160)" stroke-width="1.5"/>
<defs>
<linearGradient id="paint0_linear_1687_2160" x1="16.5" y1="3.74368" x2="16.5" y2="28.4736" gradientUnits="userSpaceOnUse">
<stop offset="0.130208" stop-color="#0D4A4E"/>
<stop offset="0.716307" stop-color="#0D4A4E"/>
</linearGradient>
</defs>
</svg>
