<svg width="228" height="76" viewBox="0 0 228 76" fill="none" xmlns="http://www.w3.org/2000/svg">
<path d="M0 10.5C0 7.23841 0 5.60761 0.532843 4.32122C1.2433 2.60602 2.60602 1.2433 4.32122 0.532843C5.60761 0 7.23841 0 10.5 0H217.5C220.762 0 222.392 0 223.679 0.532843C225.394 1.2433 226.757 2.60602 227.467 4.32122C228 5.60761 228 7.23841 228 10.5V65.5C228 68.7616 228 70.3924 227.467 71.6788C226.757 73.394 225.394 74.7567 223.679 75.4672C222.392 76 220.762 76 217.5 76H10.5C7.23841 76 5.60761 76 4.32122 75.4672C2.60602 74.7567 1.2433 73.394 0.532843 71.6788C0 70.3924 0 68.7616 0 65.5V10.5Z" fill="#0C0D10"/>
<path d="M154.899 36.4817V40.8346H152.171V43.6893H154.899V53.3887C154.899 56.7007 156.397 58.0255 160.167 58.0255C160.829 58.0255 161.46 57.9467 162.012 57.852V55.0289C161.539 55.0763 161.239 55.1078 160.719 55.1078C159.031 55.1078 158.29 54.3192 158.29 52.5213V43.6893H162.012V40.8346H158.29V36.4817H154.899Z" fill="white"/>
<path d="M171.614 58.2621C176.63 58.2621 179.705 54.9028 179.705 49.3354C179.705 43.7997 176.614 40.4246 171.614 40.4246C166.599 40.4246 163.508 43.7997 163.508 49.3354C163.508 54.9028 166.583 58.2621 171.614 58.2621ZM171.614 55.2497C168.665 55.2497 167.009 53.0891 167.009 49.3354C167.009 45.6134 168.665 43.4369 171.614 43.4369C174.548 43.4369 176.22 45.6134 176.22 49.3354C176.22 53.0733 174.548 55.2497 171.614 55.2497Z" fill="white"/>
<path d="M182.337 57.9309H185.727V47.7898C185.727 45.3768 187.541 43.7523 190.112 43.7523C190.711 43.7523 191.721 43.8627 192.004 43.9574V40.6138C191.642 40.5192 190.995 40.4719 190.49 40.4719C188.251 40.4719 186.342 41.702 185.854 43.3896H185.601V40.7558H182.337V57.9309Z" fill="white"/>
<path d="M200.424 43.3107C202.932 43.3107 204.572 45.0614 204.651 47.7583H195.976C196.166 45.0771 197.916 43.3107 200.424 43.3107ZM204.635 53.2941C204.004 54.6347 202.6 55.3759 200.55 55.3759C197.837 55.3759 196.087 53.4676 195.976 50.4552V50.266H208.105V49.0831C208.105 43.6893 205.218 40.4246 200.44 40.4246C195.598 40.4246 192.522 43.9101 192.522 49.3985C192.522 54.887 195.535 58.2621 200.455 58.2621C204.383 58.2621 207.127 56.3695 207.9 53.2941H204.635Z" fill="white"/>
<path d="M132.662 51.5884C132.924 55.8058 136.438 58.503 141.669 58.503C147.26 58.503 150.758 55.6751 150.758 51.1634C150.758 47.6161 148.764 45.6545 143.925 44.5266L141.326 43.8891C138.253 43.1698 137.011 42.2054 137.011 40.5217C137.011 38.3966 138.939 37.0072 141.833 37.0072C144.579 37.0072 146.475 38.3639 146.819 40.538H150.382C150.17 36.5658 146.671 33.7705 141.882 33.7705C136.733 33.7705 133.3 36.5658 133.3 40.7669C133.3 44.2324 135.245 46.2921 139.512 47.2892L142.552 48.0248C145.674 48.7604 147.047 49.8393 147.047 51.6374C147.047 53.7298 144.89 55.25 141.947 55.25C138.792 55.25 136.602 53.8279 136.291 51.5884H132.662Z" fill="white"/>
<path d="M97.5364 40.4719C95.2023 40.4719 93.1835 41.639 92.1426 43.5946H91.8902V40.7558H88.6255V63.6402H92.0164V55.3286H92.2845C93.1835 57.1423 95.1234 58.2148 97.568 58.2148C101.905 58.2148 104.665 54.7924 104.665 49.3354C104.665 43.8785 101.905 40.4719 97.5364 40.4719ZM96.5744 55.1709C93.7355 55.1709 91.9533 52.9313 91.9533 49.3512C91.9533 45.7553 93.7355 43.5158 96.5901 43.5158C99.4606 43.5158 101.18 45.708 101.18 49.3354C101.18 52.9787 99.4606 55.1709 96.5744 55.1709Z" fill="white"/>
<path d="M116.53 40.4719C114.196 40.4719 112.177 41.639 111.136 43.5946H110.884V40.7558H107.619V63.6402H111.01V55.3286H111.278C112.177 57.1423 114.117 58.2148 116.562 58.2148C120.899 58.2148 123.659 54.7924 123.659 49.3354C123.659 43.8785 120.899 40.4719 116.53 40.4719ZM115.568 55.1709C112.729 55.1709 110.947 52.9313 110.947 49.3512C110.947 45.7553 112.729 43.5158 115.584 43.5158C118.454 43.5158 120.174 45.708 120.174 49.3354C120.174 52.9787 118.454 55.1709 115.568 55.1709Z" fill="white"/>
<path d="M82.5417 57.9309H86.4322L77.9156 34.3426H73.9761L65.4595 57.9309H69.2192L71.3933 51.6701H80.384L82.5417 57.9309ZM75.7579 38.6255H76.0358L79.4522 48.5969H72.3251L75.7579 38.6255Z" fill="white"/>
<path d="M67.7371 16.5506V27.9297H71.8456C75.2365 27.9297 77.2 25.84 77.2 22.2047C77.2 18.6246 75.2207 16.5506 71.8456 16.5506H67.7371ZM69.5035 18.1593H71.6485C74.0063 18.1593 75.4021 19.6576 75.4021 22.2283C75.4021 24.8385 74.03 26.321 71.6485 26.321H69.5035V18.1593Z" fill="white"/>
<path d="M83.2137 28.0953C85.7214 28.0953 87.2591 26.4157 87.2591 23.632C87.2591 20.8641 85.7135 19.1766 83.2137 19.1766C80.706 19.1766 79.1604 20.8641 79.1604 23.632C79.1604 26.4157 80.6981 28.0953 83.2137 28.0953ZM83.2137 26.5892C81.7391 26.5892 80.9111 25.5088 80.9111 23.632C80.9111 21.771 81.7391 20.6827 83.2137 20.6827C84.6804 20.6827 85.5163 21.771 85.5163 23.632C85.5163 25.5009 84.6804 26.5892 83.2137 26.5892Z" fill="white"/>
<path d="M100.354 19.3422H98.6587L97.1289 25.8952H96.9948L95.2284 19.3422H93.6039L91.8375 25.8952H91.7114L90.1736 19.3422H88.4546L90.8203 27.9297H92.563L94.3294 21.6054H94.4635L96.2378 27.9297H97.9963L100.354 19.3422Z" fill="white"/>
<path d="M102.307 27.9297H104.002V22.9065C104.002 21.5659 104.799 20.7301 106.052 20.7301C107.306 20.7301 107.906 21.4161 107.906 22.7961V27.9297H109.601V22.3703C109.601 20.3279 108.544 19.1766 106.628 19.1766C105.335 19.1766 104.483 19.7522 104.065 20.7064H103.939V19.3422H102.307V27.9297Z" fill="white"/>
<path d="M112.271 27.9297H113.967V15.9907H112.271V27.9297Z" fill="white"/>
<path d="M120.343 28.0953C122.851 28.0953 124.388 26.4157 124.388 23.632C124.388 20.8641 122.843 19.1766 120.343 19.1766C117.835 19.1766 116.29 20.8641 116.29 23.632C116.29 26.4157 117.827 28.0953 120.343 28.0953ZM120.343 26.5892C118.868 26.5892 118.04 25.5088 118.04 23.632C118.04 21.771 118.868 20.6827 120.343 20.6827C121.81 20.6827 122.646 21.771 122.646 23.632C122.646 25.5009 121.81 26.5892 120.343 26.5892Z" fill="white"/>
<path d="M129.44 26.6444C128.517 26.6444 127.847 26.1949 127.847 25.4221C127.847 24.665 128.383 24.2629 129.566 24.184L131.664 24.05V24.7676C131.664 25.8321 130.717 26.6444 129.44 26.6444ZM129.006 28.0717C130.134 28.0717 131.072 27.5828 131.585 26.7232H131.719V27.9297H133.351V22.0627C133.351 20.249 132.137 19.1766 129.984 19.1766C128.036 19.1766 126.648 20.1229 126.475 21.5975H128.115C128.304 20.9903 128.959 20.6433 129.905 20.6433C131.064 20.6433 131.664 21.1559 131.664 22.0627V22.804L129.337 22.9381C127.295 23.0642 126.144 23.9553 126.144 25.5009C126.144 27.0702 127.35 28.0717 129.006 28.0717Z" fill="white"/>
<path d="M139.105 28.0717C140.288 28.0717 141.289 27.5118 141.802 26.5734H141.936V27.9297H143.56V15.9907H141.865V20.7064H141.739C141.273 19.7601 140.28 19.2002 139.105 19.2002C136.936 19.2002 135.54 20.9193 135.54 23.632C135.54 26.3526 136.92 28.0717 139.105 28.0717ZM139.586 20.7222C141.005 20.7222 141.896 21.8498 141.896 23.6399C141.896 25.4378 141.013 26.5497 139.586 26.5497C138.15 26.5497 137.291 25.4536 137.291 23.632C137.291 21.8262 138.158 20.7222 139.586 20.7222Z" fill="white"/>
<path d="M154.554 28.0953C157.062 28.0953 158.6 26.4157 158.6 23.632C158.6 20.8641 157.054 19.1766 154.554 19.1766C152.047 19.1766 150.501 20.8641 150.501 23.632C150.501 26.4157 152.039 28.0953 154.554 28.0953ZM154.554 26.5892C153.08 26.5892 152.252 25.5088 152.252 23.632C152.252 21.771 153.08 20.6827 154.554 20.6827C156.021 20.6827 156.857 21.771 156.857 23.632C156.857 25.5009 156.021 26.5892 154.554 26.5892Z" fill="white"/>
<path d="M160.844 27.9297H162.54V22.9065C162.54 21.5659 163.336 20.7301 164.59 20.7301C165.844 20.7301 166.443 21.4161 166.443 22.7961V27.9297H168.138V22.3703C168.138 20.3279 167.082 19.1766 165.165 19.1766C163.872 19.1766 163.021 19.7522 162.603 20.7064H162.476V19.3422H160.844V27.9297Z" fill="white"/>
<path d="M175.947 17.2051V19.3816H174.583V20.8089H175.947V25.6586C175.947 27.3146 176.696 27.977 178.581 27.977C178.912 27.977 179.227 27.9376 179.503 27.8903V26.4788C179.267 26.5024 179.117 26.5182 178.857 26.5182C178.013 26.5182 177.642 26.1239 177.642 25.2249V20.8089H179.503V19.3816H177.642V17.2051H175.947Z" fill="white"/>
<path d="M181.779 27.9297H183.475V22.9144C183.475 21.6133 184.247 20.7379 185.635 20.7379C186.834 20.7379 187.473 21.4319 187.473 22.804V27.9297H189.168V22.3861C189.168 20.3437 188.04 19.1844 186.211 19.1844C184.918 19.1844 184.011 19.7601 183.593 20.7222H183.459V15.9907H181.779V27.9297Z" fill="white"/>
<path d="M195.284 20.6197C196.538 20.6197 197.358 21.495 197.398 22.8434H193.06C193.155 21.5029 194.03 20.6197 195.284 20.6197ZM197.39 25.6113C197.074 26.2816 196.373 26.6522 195.347 26.6522C193.991 26.6522 193.116 25.6981 193.06 24.1919V24.0973H199.125V23.5058C199.125 20.8089 197.682 19.1766 195.292 19.1766C192.871 19.1766 191.334 20.9193 191.334 23.6635C191.334 26.4078 192.84 28.0953 195.3 28.0953C197.264 28.0953 198.636 27.149 199.022 25.6113H197.39Z" fill="white"/>
<path d="M47.0611 38.5715C47.1022 35.3776 48.8175 32.3555 51.5386 30.6826C49.822 28.231 46.9467 26.6766 43.9553 26.583C40.7648 26.2481 37.6717 28.4922 36.0458 28.4922C34.3885 28.4922 31.8853 26.6163 29.1897 26.6717C25.6761 26.7853 22.4006 28.7829 20.6911 31.8547C17.0165 38.2167 19.7575 47.5667 23.2774 52.7092C25.0385 55.2274 27.0968 58.0403 29.7899 57.9405C32.4253 57.8312 33.4096 56.26 36.5908 56.26C39.7424 56.26 40.6659 57.9405 43.4137 57.8771C46.2416 57.8312 48.0233 55.3477 49.7226 52.8057C50.988 51.0114 51.9617 49.0284 52.6076 46.93C49.2843 45.5243 47.065 42.1799 47.0611 38.5715Z" fill="white"/>
<path d="M41.8709 23.201C43.4128 21.35 44.1725 18.9709 43.9885 16.5688C41.6328 16.8163 39.4568 17.9421 37.8941 19.7221C36.366 21.4612 35.5707 23.7985 35.7211 26.1087C38.0776 26.133 40.3943 25.0377 41.8709 23.201Z" fill="white"/>
<path d="M4.32122 75.4672L4.7039 74.5433L4.32122 75.4672ZM0.532843 71.6788L-0.391036 72.0615L0.532843 71.6788ZM227.467 71.6788L228.391 72.0615L227.467 71.6788ZM223.679 75.4672L223.296 74.5433L223.679 75.4672ZM223.679 0.532843L223.296 1.45672L223.679 0.532843ZM227.467 4.32122L226.543 4.7039L227.467 4.32122ZM10.5 1H217.5V-1H10.5V1ZM227 10.5V65.5H229V10.5H227ZM217.5 75H10.5V77H217.5V75ZM1 65.5V10.5H-1V65.5H1ZM10.5 75C8.85552 75 7.67225 74.9995 6.73798 74.9357C5.8127 74.8726 5.20494 74.7508 4.7039 74.5433L3.93853 76.391C4.72389 76.7163 5.57473 76.861 6.60184 76.9311C7.61997 77.0005 8.88289 77 10.5 77V75ZM-1 65.5C-1 67.1171 -1.00054 68.38 -0.931075 69.3982C-0.860996 70.4253 -0.716341 71.2761 -0.391036 72.0615L1.45672 71.2961C1.24918 70.7951 1.12742 70.1873 1.06429 69.262C1.00054 68.3278 1 67.1445 1 65.5H-1ZM4.7039 74.5433C3.23373 73.9343 2.06569 72.7663 1.45672 71.2961L-0.391036 72.0615C0.420915 74.0217 1.97831 75.5791 3.93853 76.391L4.7039 74.5433ZM227 65.5C227 67.1445 226.999 68.3278 226.936 69.262C226.873 70.1873 226.751 70.7951 226.543 71.2961L228.391 72.0615C228.716 71.2761 228.861 70.4253 228.931 69.3982C229.001 68.38 229 67.1171 229 65.5H227ZM217.5 77C219.117 77 220.38 77.0005 221.398 76.9311C222.425 76.861 223.276 76.7163 224.061 76.391L223.296 74.5433C222.795 74.7508 222.187 74.8726 221.262 74.9357C220.328 74.9995 219.144 75 217.5 75V77ZM226.543 71.2961C225.934 72.7663 224.766 73.9343 223.296 74.5433L224.061 76.391C226.022 75.5791 227.579 74.0217 228.391 72.0615L226.543 71.2961ZM217.5 1C219.144 1 220.328 1.00054 221.262 1.06429C222.187 1.12742 222.795 1.24918 223.296 1.45672L224.061 -0.391036C223.276 -0.716341 222.425 -0.860996 221.398 -0.931075C220.38 -1.00054 219.117 -1 217.5 -1V1ZM229 10.5C229 8.88289 229.001 7.61997 228.931 6.60184C228.861 5.57473 228.716 4.72389 228.391 3.93853L226.543 4.7039C226.751 5.20494 226.873 5.8127 226.936 6.73798C226.999 7.67225 227 8.85552 227 10.5H229ZM223.296 1.45672C224.766 2.06569 225.934 3.23373 226.543 4.7039L228.391 3.93853C227.579 1.97831 226.022 0.420915 224.061 -0.391036L223.296 1.45672ZM10.5 -1C8.88289 -1 7.61997 -1.00054 6.60184 -0.931075C5.57473 -0.860996 4.72389 -0.716341 3.93853 -0.391036L4.7039 1.45672C5.20494 1.24918 5.8127 1.12742 6.73798 1.06429C7.67225 1.00054 8.85552 1 10.5 1V-1ZM1 10.5C1 8.85552 1.00054 7.67225 1.06429 6.73798C1.12742 5.8127 1.24918 5.20494 1.45672 4.7039L-0.391036 3.93853C-0.716341 4.72389 -0.860996 5.57473 -0.931075 6.60184C-1.00054 7.61997 -1 8.88289 -1 10.5H1ZM3.93853 -0.391036C1.97831 0.420915 0.420915 1.97831 -0.391036 3.93853L1.45672 4.7039C2.06569 3.23373 3.23373 2.06569 4.7039 1.45672L3.93853 -0.391036Z" fill="#A6A6A6"/>
</svg>
