<svg width="64" height="64" viewBox="0 0 64 64" fill="none" xmlns="http://www.w3.org/2000/svg">
<path d="M54.6854 2.24312C54.6854 1.00428 55.6944 0 56.939 0C58.1836 0 59.1925 1.00428 59.1925 2.24312V37.3853H54.6854V2.24312Z" fill="#FF947B"/>
<path d="M48.9765 2.24312C48.9765 1.00428 49.9855 0 51.23 0C52.4746 0 53.4836 1.00428 53.4836 2.24312V37.3853H48.9765V2.24312Z" fill="#FF947B"/>
<path d="M43.2676 2.24312C43.2676 1.00428 44.2765 0 45.5211 0C46.7657 0 47.7746 1.00428 47.7746 2.24312V37.3853H43.2676V2.24312Z" fill="#FF947B"/>
<path d="M37.5587 2.24312C37.5587 1.00428 38.5676 0 39.8122 0C41.0568 0 42.0657 1.00428 42.0657 2.24312V37.3853H37.5587V2.24312Z" fill="#FF947B"/>
<path d="M21.9343 61.1623C21.9343 62.4012 22.9432 63.4055 24.1878 63.4055C25.4324 63.4055 26.4413 62.4012 26.4413 61.1623V26.0202H21.9343V61.1623Z" fill="#5284AB"/>
<path d="M16.2254 61.1623C16.2254 62.4012 17.2343 63.4055 18.4789 63.4055C19.7235 63.4055 20.7324 62.4012 20.7324 61.1623V26.0202H16.2254V61.1623Z" fill="#5284AB"/>
<path d="M10.5164 61.1623C10.5164 62.4012 11.5254 63.4055 12.77 63.4055C14.0145 63.4055 15.0235 62.4012 15.0235 61.1623V26.0202H10.5164V61.1623Z" fill="#5284AB"/>
<path d="M4.80751 61.1623C4.80751 62.4012 5.81645 63.4055 7.06103 63.4055C8.30562 63.4055 9.31456 62.4012 9.31456 61.1623V26.0202H4.80751V61.1623Z" fill="#5284AB"/>
<path d="M2.25352 9.27155C1.00894 9.27155 5.44026e-08 8.26727 0 7.02843C-5.44026e-08 5.78959 1.00894 4.78532 2.25352 4.78532L19.9061 4.78532L37.5587 4.78532V9.27155L2.25352 9.27155Z" fill="url(#paint0_linear_1410_3948)"/>
<path d="M2.25352 14.9541C1.00894 14.9541 3.03947e-07 13.9498 2.49545e-07 12.711C1.95142e-07 11.4722 1.00894 10.4679 2.25352 10.4679H19.9061L37.5587 10.4679V14.9541L2.25352 14.9541Z" fill="url(#paint1_linear_1410_3948)"/>
<path d="M2.25352 20.6367C1.00894 20.6367 5.53492e-07 19.6324 4.9909e-07 18.3936C4.44687e-07 17.1547 1.00894 16.1504 2.25352 16.1504L37.5587 16.1504V20.6367L2.25352 20.6367Z" fill="url(#paint2_linear_1410_3948)"/>
<path d="M2.25352 26.3192C1.00894 26.3192 8.03037e-07 25.315 7.48634e-07 24.0761C6.94232e-07 22.8373 1.00894 21.833 2.25352 21.833L37.5587 21.833V26.3192L2.25352 26.3192Z" fill="url(#paint3_linear_1410_3948)"/>
<path d="M61.7465 41.5724C62.9911 41.5724 64 40.5682 64 39.3293C64 38.0905 62.9911 37.0862 61.7465 37.0862H26.4413V41.5724H61.7465Z" fill="#EAD3A2"/>
<path d="M61.7465 47.255C62.9911 47.255 64 46.2507 64 45.0119C64 43.7731 62.9911 42.7688 61.7465 42.7688H26.4413V47.255H61.7465Z" fill="#EAD3A2"/>
<path d="M61.7465 52.9376C62.9911 52.9376 64 51.9333 64 50.6945C64 49.4556 62.9911 48.4513 61.7465 48.4513H26.4413V52.9376H61.7465Z" fill="#EAD3A2"/>
<path d="M61.7465 58.6201C62.9911 58.6201 64 57.6159 64 56.377C64 55.1382 62.9911 54.1339 61.7465 54.1339H26.4413V58.6201H61.7465Z" fill="#EAD3A2"/>
<defs>
<linearGradient id="paint0_linear_1410_3948" x1="32" y1="0" x2="32" y2="78.1299" gradientUnits="userSpaceOnUse">
<stop offset="0.130208" stop-color="#0D4A4E"/>
<stop offset="0.716307" stop-color="#0D4A4E"/>
</linearGradient>
<linearGradient id="paint1_linear_1410_3948" x1="32" y1="0" x2="32" y2="78.1299" gradientUnits="userSpaceOnUse">
<stop offset="0.130208" stop-color="#0D4A4E"/>
<stop offset="0.716307" stop-color="#0D4A4E"/>
</linearGradient>
<linearGradient id="paint2_linear_1410_3948" x1="32" y1="0" x2="32" y2="78.1299" gradientUnits="userSpaceOnUse">
<stop offset="0.130208" stop-color="#0D4A4E"/>
<stop offset="0.716307" stop-color="#0D4A4E"/>
</linearGradient>
<linearGradient id="paint3_linear_1410_3948" x1="32" y1="0" x2="32" y2="78.1299" gradientUnits="userSpaceOnUse">
<stop offset="0.130208" stop-color="#0D4A4E"/>
<stop offset="0.716307" stop-color="#0D4A4E"/>
</linearGradient>
</defs>
</svg>
