<svg width="257" height="76" viewBox="0 0 257 76" fill="none" xmlns="http://www.w3.org/2000/svg">
<path d="M0 5C0 2.23858 2.23858 0 5 0H252C254.761 0 257 2.23858 257 5V71C257 73.7614 254.761 76 252 76H5C2.23858 76 0 73.7614 0 71V5Z" fill="black"/>
<path d="M129.711 41.3272C125.233 41.3272 121.584 44.7264 121.584 49.408C121.584 54.0611 125.233 57.4886 129.711 57.4886C134.19 57.4886 137.84 54.0611 137.84 49.408C137.838 44.7264 134.188 41.3272 129.711 41.3272ZM129.711 54.3081C127.257 54.3081 125.142 52.2884 125.142 49.4099C125.142 46.501 127.259 44.5116 129.711 44.5116C132.165 44.5116 134.28 46.501 134.28 49.4099C134.28 52.2865 132.165 54.3081 129.711 54.3081ZM111.98 41.3272C107.502 41.3272 103.853 44.7264 103.853 49.408C103.853 54.0611 107.502 57.4886 111.98 57.4886C116.459 57.4886 120.108 54.0611 120.108 49.408C120.108 44.7264 116.459 41.3272 111.98 41.3272ZM111.98 54.3081C109.526 54.3081 107.411 52.2884 107.411 49.4099C107.411 46.501 109.528 44.5116 111.98 44.5116C114.434 44.5116 116.549 46.501 116.549 49.4099C116.55 52.2865 114.434 54.3081 111.98 54.3081ZM90.8904 43.8086V47.2362H99.1106C98.865 49.1647 98.2216 50.5726 97.2393 51.5511C96.0437 52.7444 94.1724 54.061 90.8904 54.061C85.8304 54.061 81.8745 49.9893 81.8745 44.9391C81.8745 39.8889 85.8304 35.8172 90.8904 35.8172C93.6203 35.8172 95.6135 36.8888 97.0851 38.2663L99.5085 35.8476C97.4525 33.8887 94.7245 32.3897 90.8904 32.3897C83.959 32.3897 78.1318 38.0212 78.1318 44.9391C78.1318 51.857 83.959 57.4886 90.8904 57.4886C94.6312 57.4886 97.4544 56.2631 99.6608 53.9679C101.93 51.7031 102.636 48.5187 102.636 45.948C102.636 45.1538 102.575 44.4185 102.452 43.8067H90.8904V43.8086ZM177.143 46.4705C176.47 44.6655 174.414 41.3272 170.212 41.3272C166.041 41.3272 162.574 44.6029 162.574 49.408C162.574 53.9376 166.011 57.4886 170.61 57.4886C174.32 57.4886 176.468 55.2239 177.359 53.9072L174.598 52.0698C173.679 53.4169 172.42 54.3043 170.61 54.3043C168.801 54.3043 167.513 53.4777 166.684 51.8551L177.511 47.3863L177.143 46.4705ZM166.102 49.1647C166.011 46.0411 168.525 44.4509 170.336 44.4509C171.746 44.4509 172.942 45.1558 173.342 46.1647L166.102 49.1647ZM157.301 57.0003H160.857V33.2484H157.301V57.0003ZM151.472 43.1341H151.35C150.552 42.1841 149.018 41.3272 147.088 41.3272C143.039 41.3272 139.328 44.8783 139.328 49.4402C139.328 53.9699 143.039 57.4905 147.088 57.4905C149.02 57.4905 150.552 56.6336 151.35 55.6551H151.472V56.8179C151.472 59.9092 149.816 61.5623 147.149 61.5623C144.971 61.5623 143.621 60.0024 143.069 58.6857L139.972 59.9719C140.861 62.1132 143.221 64.7466 147.149 64.7466C151.32 64.7466 154.847 62.2976 154.847 56.3277V41.8193H151.474V43.1341H151.472ZM147.394 54.3081C144.94 54.3081 142.886 52.2561 142.886 49.4402C142.886 46.5921 144.94 44.5116 147.394 44.5116C149.816 44.5116 151.718 46.5921 151.718 49.4402C151.718 52.2561 149.816 54.3081 147.394 54.3081ZM193.808 33.2484H185.297V57.0003H188.847V48.0019H193.807C197.743 48.0019 201.616 45.1576 201.616 40.6261C201.616 36.0946 197.745 33.2484 193.808 33.2484ZM193.9 44.6959H188.847V36.5544H193.9C196.555 36.5544 198.063 38.7489 198.063 40.6261C198.063 42.4653 196.555 44.6959 193.9 44.6959ZM215.853 41.2854C213.281 41.2854 210.618 42.416 209.516 44.9221L212.668 46.2349C213.342 44.922 214.599 44.4926 215.914 44.4926C217.751 44.4926 219.619 45.5928 219.649 47.5479V47.7929C219.006 47.4262 217.628 46.8772 215.945 46.8772C212.547 46.8772 209.086 48.741 209.086 52.2237C209.086 55.4025 211.873 57.4487 214.995 57.4487C217.382 57.4487 218.699 56.3791 219.526 55.1251H219.647V56.9586H223.078V47.8519C223.08 43.6377 219.923 41.2854 215.853 41.2854ZM215.423 54.3024C214.262 54.3024 212.638 53.721 212.638 52.2846C212.638 50.4511 214.66 49.748 216.405 49.748C217.965 49.748 218.701 50.0844 219.649 50.5423C219.373 52.7444 217.475 54.3024 215.423 54.3024ZM235.57 41.8041L231.498 52.1022H231.376L227.15 41.8041H223.323L229.661 56.1966L226.048 64.2032H229.752L239.52 41.8041H235.57ZM203.576 57.0003H207.127V33.2484H203.576V57.0003Z" fill="white"/>
<path d="M90.2699 19.4616C90.2699 21.0538 89.7978 22.3211 88.8517 23.2673C87.778 24.3921 86.3768 24.9545 84.6559 24.9545C83.0073 24.9545 81.6043 24.3845 80.4525 23.2445C79.2989 22.1026 78.722 20.689 78.722 19.0018C78.722 17.3127 79.2989 15.8991 80.4525 14.7591C81.6043 13.6172 83.0073 13.0472 84.6559 13.0472C85.4745 13.0472 86.2569 13.2068 86.9993 13.5241C87.7437 13.8433 88.3396 14.267 88.785 14.7971L87.7818 15.8003C87.026 14.8978 85.9847 14.4475 84.654 14.4475C83.4508 14.4475 82.4114 14.8693 81.5338 15.7129C80.6562 16.5565 80.2184 17.6528 80.2184 18.9999C80.2184 20.347 80.6562 21.4433 81.5338 22.2869C82.4114 23.1305 83.4508 23.5523 84.654 23.5523C85.9295 23.5523 86.9936 23.1286 87.8446 22.2793C88.3967 21.7264 88.7165 20.9569 88.8022 19.9708H84.654V18.6009H90.1881C90.2452 18.8992 90.2699 19.1861 90.2699 19.4616Z" fill="white"/>
<path d="M99.0462 14.7003H93.8453V18.3141H98.536V19.684H93.8453V23.2978H99.0462V24.7H92.3775V13.3H99.0462V14.7003Z" fill="white"/>
<path d="M105.235 24.7H103.767V14.7003H100.577V13.3H108.426V14.7003H105.235V24.7Z" fill="white"/>
<path d="M114.104 24.7V13.3H115.572V24.7H114.104Z" fill="white"/>
<path d="M122.081 24.7H120.613V14.7003H117.423V13.3H125.272V14.7003H122.081V24.7Z" fill="white"/>
<path d="M140.13 23.2275C139.006 24.3789 137.611 24.9546 135.941 24.9546C134.272 24.9546 132.876 24.3789 131.755 23.2275C130.632 22.0761 130.072 20.6663 130.072 19C130.072 17.3337 130.632 15.9239 131.755 14.7725C132.876 13.6211 134.272 13.0435 135.941 13.0435C137.601 13.0435 138.995 13.623 140.122 14.7801C141.249 15.9372 141.812 17.3432 141.812 19C141.812 20.6663 141.251 22.0761 140.13 23.2275ZM132.838 22.2718C133.684 23.1268 134.717 23.5524 135.941 23.5524C137.166 23.5524 138.201 23.1249 139.044 22.2718C139.89 21.4168 140.314 20.3262 140.314 19C140.314 17.6738 139.89 16.5832 139.044 15.7282C138.201 14.8732 137.166 14.4476 135.941 14.4476C134.717 14.4476 133.684 14.8751 132.838 15.7282C131.995 16.5832 131.571 17.6738 131.571 19C131.571 20.3262 131.995 21.4168 132.838 22.2718Z" fill="white"/>
<path d="M143.872 24.7V13.3H145.658L151.209 22.1673H151.272L151.209 19.9709V13.3H152.677V24.7H151.144L145.336 15.4014H145.273L145.336 17.5978V24.7H143.872Z" fill="white"/>
<path d="M90.2699 19.4616C90.2699 21.0538 89.7978 22.3211 88.8517 23.2673C87.778 24.3921 86.3768 24.9545 84.6559 24.9545C83.0073 24.9545 81.6043 24.3845 80.4525 23.2445C79.2989 22.1026 78.722 20.689 78.722 19.0018C78.722 17.3127 79.2989 15.8991 80.4525 14.7591C81.6043 13.6172 83.0073 13.0472 84.6559 13.0472C85.4745 13.0472 86.2569 13.2068 86.9993 13.5241C87.7437 13.8433 88.3396 14.267 88.785 14.7971L87.7818 15.8003C87.026 14.8978 85.9847 14.4475 84.654 14.4475C83.4508 14.4475 82.4114 14.8693 81.5338 15.7129C80.6562 16.5565 80.2184 17.6528 80.2184 18.9999C80.2184 20.347 80.6562 21.4433 81.5338 22.2869C82.4114 23.1305 83.4508 23.5523 84.654 23.5523C85.9295 23.5523 86.9936 23.1286 87.8446 22.2793C88.3967 21.7264 88.7165 20.9569 88.8022 19.9708H84.654V18.6009H90.1881C90.2452 18.8992 90.2699 19.1861 90.2699 19.4616Z" stroke="white" stroke-width="0.2" stroke-miterlimit="10"/>
<path d="M99.0462 14.7003H93.8453V18.3141H98.536V19.684H93.8453V23.2978H99.0462V24.7H92.3775V13.3H99.0462V14.7003Z" stroke="white" stroke-width="0.2" stroke-miterlimit="10"/>
<path d="M105.235 24.7H103.767V14.7003H100.577V13.3H108.426V14.7003H105.235V24.7Z" stroke="white" stroke-width="0.2" stroke-miterlimit="10"/>
<path d="M114.104 24.7V13.3H115.572V24.7H114.104Z" stroke="white" stroke-width="0.2" stroke-miterlimit="10"/>
<path d="M122.081 24.7H120.613V14.7003H117.423V13.3H125.272V14.7003H122.081V24.7Z" stroke="white" stroke-width="0.2" stroke-miterlimit="10"/>
<path d="M140.13 23.2275C139.006 24.3789 137.611 24.9546 135.941 24.9546C134.272 24.9546 132.876 24.3789 131.755 23.2275C130.632 22.0761 130.072 20.6663 130.072 19C130.072 17.3337 130.632 15.9239 131.755 14.7725C132.876 13.6211 134.272 13.0435 135.941 13.0435C137.601 13.0435 138.995 13.623 140.122 14.7801C141.249 15.9372 141.812 17.3432 141.812 19C141.812 20.6663 141.251 22.0761 140.13 23.2275ZM132.838 22.2718C133.684 23.1268 134.717 23.5524 135.941 23.5524C137.166 23.5524 138.201 23.1249 139.044 22.2718C139.89 21.4168 140.314 20.3262 140.314 19C140.314 17.6738 139.89 16.5832 139.044 15.7282C138.201 14.8732 137.166 14.4476 135.941 14.4476C134.717 14.4476 133.684 14.8751 132.838 15.7282C131.995 16.5832 131.571 17.6738 131.571 19C131.571 20.3262 131.995 21.4168 132.838 22.2718Z" stroke="white" stroke-width="0.2" stroke-miterlimit="10"/>
<path d="M143.872 24.7V13.3H145.658L151.209 22.1673H151.272L151.209 19.9709V13.3H152.677V24.7H151.144L145.336 15.4014H145.273L145.336 17.5978V24.7H143.872Z" stroke="white" stroke-width="0.2" stroke-miterlimit="10"/>
<g filter="url(#filter0_ii_1440_4858)">
<path d="M19.8671 14.3223C19.3131 14.9075 18.9856 15.8157 18.9856 16.9918V59.0122C18.9856 60.1902 19.3131 61.0965 19.8671 61.6817L20.0079 61.8185L43.5929 38.2794V38.002V37.7246L20.0079 14.1836L19.8671 14.3223Z" fill="url(#paint0_linear_1440_4858)"/>
<path d="M51.4533 46.1281L43.5929 38.2792V38.0018V37.7244L51.4552 29.8774L51.6323 29.9781L60.9471 35.2601C63.6065 36.7687 63.6065 39.2368 60.9471 40.7473L51.6323 46.0293L51.4533 46.1281Z" fill="url(#paint1_linear_1440_4858)"/>
<g filter="url(#filter1_i_1440_4858)">
<path d="M51.6323 46.0276L43.591 38.002L19.8671 61.6817C20.7428 62.6089 22.1915 62.7229 23.823 61.7995L51.6323 46.0276Z" fill="url(#paint2_linear_1440_4858)"/>
</g>
<path d="M51.6323 29.9764L23.823 14.2064C22.1915 13.2811 20.7428 13.397 19.8671 14.3242L43.5929 38.0039L51.6323 29.9764Z" fill="url(#paint3_linear_1440_4858)"/>
</g>
<path d="M5 1H252V-1H5V1ZM256 5V71H258V5H256ZM252 75H5V77H252V75ZM1 71V5H-1V71H1ZM5 75C2.79086 75 1 73.2091 1 71H-1C-1 74.3137 1.68629 77 5 77V75ZM256 71C256 73.2091 254.209 75 252 75V77C255.314 77 258 74.3137 258 71H256ZM252 1C254.209 1 256 2.79086 256 5H258C258 1.68629 255.314 -1 252 -1V1ZM5 -1C1.68629 -1 -1 1.68629 -1 5H1C1 2.79086 2.79086 1 5 1V-1Z" fill="#A6A6A6"/>
<defs>
<filter id="filter0_ii_1440_4858" x="18.9856" y="13.5679" width="43.956" height="48.8691" filterUnits="userSpaceOnUse" color-interpolation-filters="sRGB">
<feFlood flood-opacity="0" result="BackgroundImageFix"/>
<feBlend mode="normal" in="SourceGraphic" in2="BackgroundImageFix" result="shape"/>
<feColorMatrix in="SourceAlpha" type="matrix" values="0 0 0 0 0 0 0 0 0 0 0 0 0 0 0 0 0 0 127 0" result="hardAlpha"/>
<feOffset dy="-0.15"/>
<feComposite in2="hardAlpha" operator="arithmetic" k2="-1" k3="1"/>
<feColorMatrix type="matrix" values="0 0 0 0 0 0 0 0 0 0 0 0 0 0 0 0 0 0 0.12 0"/>
<feBlend mode="normal" in2="shape" result="effect1_innerShadow_1440_4858"/>
<feColorMatrix in="SourceAlpha" type="matrix" values="0 0 0 0 0 0 0 0 0 0 0 0 0 0 0 0 0 0 127 0" result="hardAlpha"/>
<feOffset dy="0.15"/>
<feComposite in2="hardAlpha" operator="arithmetic" k2="-1" k3="1"/>
<feColorMatrix type="matrix" values="0 0 0 0 1 0 0 0 0 1 0 0 0 0 1 0 0 0 0.25 0"/>
<feBlend mode="normal" in2="effect1_innerShadow_1440_4858" result="effect2_innerShadow_1440_4858"/>
</filter>
<filter id="filter1_i_1440_4858" x="19.8671" y="38.002" width="31.7652" height="24.4351" filterUnits="userSpaceOnUse" color-interpolation-filters="sRGB">
<feFlood flood-opacity="0" result="BackgroundImageFix"/>
<feBlend mode="normal" in="SourceGraphic" in2="BackgroundImageFix" result="shape"/>
<feColorMatrix in="SourceAlpha" type="matrix" values="0 0 0 0 0 0 0 0 0 0 0 0 0 0 0 0 0 0 127 0" result="hardAlpha"/>
<feOffset dy="-0.15"/>
<feComposite in2="hardAlpha" operator="arithmetic" k2="-1" k3="1"/>
<feColorMatrix type="matrix" values="0 0 0 0 0 0 0 0 0 0 0 0 0 0 0 0 0 0 0.08 0"/>
<feBlend mode="normal" in2="shape" result="effect1_innerShadow_1440_4858"/>
</filter>
<linearGradient id="paint0_linear_1440_4858" x1="41.5023" y1="16.5472" x2="9.61653" y2="48.4951" gradientUnits="userSpaceOnUse">
<stop stop-color="#00A0FF"/>
<stop offset="0.0066" stop-color="#00A1FF"/>
<stop offset="0.2601" stop-color="#00BEFF"/>
<stop offset="0.5122" stop-color="#00D2FF"/>
<stop offset="0.7604" stop-color="#00DFFF"/>
<stop offset="1" stop-color="#00E3FF"/>
</linearGradient>
<linearGradient id="paint1_linear_1440_4858" x1="64.409" y1="38.0018" x2="18.3471" y2="38.0018" gradientUnits="userSpaceOnUse">
<stop stop-color="#FFE000"/>
<stop offset="0.4087" stop-color="#FFBD00"/>
<stop offset="0.7754" stop-color="#FFA500"/>
<stop offset="1" stop-color="#FF9C00"/>
</linearGradient>
<linearGradient id="paint2_linear_1440_4858" x1="47.2654" y1="42.3604" x2="4.0243" y2="85.6857" gradientUnits="userSpaceOnUse">
<stop stop-color="#FF3A44"/>
<stop offset="1" stop-color="#C31162"/>
</linearGradient>
<linearGradient id="paint3_linear_1440_4858" x1="13.8921" y1="0.336036" x2="33.2004" y2="19.682" gradientUnits="userSpaceOnUse">
<stop stop-color="#32A071"/>
<stop offset="0.0685" stop-color="#2DA771"/>
<stop offset="0.4762" stop-color="#15CF74"/>
<stop offset="0.8009" stop-color="#06E775"/>
<stop offset="1" stop-color="#00F076"/>
</linearGradient>
</defs>
</svg>
