<svg width="32" height="33" viewBox="0 0 32 33" fill="none" xmlns="http://www.w3.org/2000/svg">
<path d="M1.33333 27.1667V25.8333C1.33333 23.358 2.31666 20.984 4.067 19.2337C5.81734 17.4833 8.19131 16.5 10.6667 16.5V16.5C13.142 16.5 15.516 17.4833 17.2663 19.2337C19.0167 20.984 20 23.358 20 25.8333V27.1667" stroke="url(#paint0_linear_1687_4310)" stroke-width="1.5" stroke-linecap="round"/>
<path d="M17.3333 19.1667C17.3333 17.3986 18.0357 15.7029 19.286 14.4526C20.5362 13.2024 22.2319 12.5 24 12.5V12.5C24.8755 12.5 25.7424 12.6724 26.5512 13.0075C27.3601 13.3425 28.095 13.8336 28.714 14.4526C29.3331 15.0717 29.8242 15.8066 30.1592 16.6154C30.4942 17.4243 30.6667 18.2912 30.6667 19.1667V19.8333" stroke="url(#paint1_linear_1687_4310)" stroke-width="1.5" stroke-linecap="round"/>
<path d="M10.6667 16.5C12.0812 16.5 13.4377 15.9381 14.4379 14.9379C15.4381 13.9377 16 12.5812 16 11.1667C16 9.75218 15.4381 8.39562 14.4379 7.39543C13.4377 6.39524 12.0812 5.83333 10.6667 5.83333C9.25218 5.83333 7.89562 6.39524 6.89543 7.39543C5.89523 8.39562 5.33333 9.75218 5.33333 11.1667C5.33333 12.5812 5.89523 13.9377 6.89543 14.9379C7.89562 15.9381 9.25218 16.5 10.6667 16.5V16.5ZM24 12.5C25.0609 12.5 26.0783 12.0786 26.8284 11.3284C27.5786 10.5783 28 9.56087 28 8.5C28 7.43913 27.5786 6.42172 26.8284 5.67157C26.0783 4.92143 25.0609 4.5 24 4.5C22.9391 4.5 21.9217 4.92143 21.1716 5.67157C20.4214 6.42172 20 7.43913 20 8.5C20 9.56087 20.4214 10.5783 21.1716 11.3284C21.9217 12.0786 22.9391 12.5 24 12.5Z" stroke="url(#paint2_linear_1687_4310)" stroke-width="1.5" stroke-linecap="round" stroke-linejoin="round"/>
<defs>
<linearGradient id="paint0_linear_1687_4310" x1="10.6667" y1="16.5" x2="10.6667" y2="27.1667" gradientUnits="userSpaceOnUse">
<stop offset="0.130208" stop-color="#0D4A4E"/>
<stop offset="0.716307" stop-color="#0D4A4E"/>
</linearGradient>
<linearGradient id="paint1_linear_1687_4310" x1="24" y1="12.5" x2="24" y2="19.8333" gradientUnits="userSpaceOnUse">
<stop offset="0.130208" stop-color="#0D4A4E"/>
<stop offset="0.716307" stop-color="#0D4A4E"/>
</linearGradient>
<linearGradient id="paint2_linear_1687_4310" x1="16.6667" y1="4.5" x2="16.6667" y2="16.5" gradientUnits="userSpaceOnUse">
<stop offset="0.130208" stop-color="#0D4A4E"/>
<stop offset="0.716307" stop-color="#0D4A4E"/>
</linearGradient>
</defs>
</svg>
